<svg xmlns="http://www.w3.org/2000/svg" viewBox="0 0 1200 720" role="img" aria-labelledby="title desc">
  <title id="title">Magento coupon protection module</title><desc id="desc">A coupon card protected by a shield with identity validation checks.</desc>
  <defs><linearGradient id="bg" x1="0" y1="1" x2="1" y2="0"><stop stop-color="#052e2b"/><stop offset="1" stop-color="#0f766e"/></linearGradient><filter id="s"><feDropShadow dx="0" dy="20" stdDeviation="20" flood-opacity=".28"/></filter></defs>
  <rect width="1200" height="720" rx="44" fill="url(#bg)"/><circle cx="1060" cy="80" r="250" fill="#5eead4" opacity=".12"/>
  <text x="72" y="86" fill="#99f6e4" font-family="Arial" font-size="24" font-weight="700" letter-spacing="3">CUSTOM MAGENTO MODULE</text><text x="72" y="140" fill="#fff" font-family="Arial" font-size="42" font-weight="700">Guest coupon protection</text>
  <g filter="url(#s)"><rect x="72" y="188" width="1056" height="458" rx="28" fill="#f0fdfa"/></g>
  <g transform="translate(146 300)"><path d="M0 48a30 30 0 0 0 30-30h430a30 30 0 0 0 30 30v200a30 30 0 0 0-30 30H30a30 30 0 0 0-30-30Z" fill="#fff" stroke="#5eead4" stroke-width="4" stroke-dasharray="12 10"/><text x="52" y="92" fill="#0f766e" font-family="Arial" font-size="22" font-weight="700">PROMO CODE</text><text x="52" y="158" fill="#134e4a" font-family="Arial" font-size="44" font-weight="700">SAVE20</text><text x="52" y="208" fill="#64748b" font-family="Arial" font-size="18">One eligible use per customer</text></g>
  <g transform="translate(700 250)"><path d="M145 0c54 35 109 40 145 45v124c0 100-55 162-145 207C55 331 0 269 0 169V45c36-5 91-10 145-45Z" fill="#0f766e"/><path d="m80 175 42 42 88-102" fill="none" stroke="#ccfbf1" stroke-width="24" stroke-linecap="round" stroke-linejoin="round"/></g>
  <g font-family="Arial" font-size="17"><rect x="740" y="568" width="128" height="40" rx="20" fill="#ccfbf1"/><text x="768" y="594" fill="#115e59">Email</text><rect x="882" y="568" width="128" height="40" rx="20" fill="#ccfbf1"/><text x="907" y="594" fill="#115e59">Phone</text><rect x="1024" y="568" width="80" height="40" rx="20" fill="#ccfbf1"/><text x="1045" y="594" fill="#115e59">Address</text></g>
</svg>
