<svg xmlns="http://www.w3.org/2000/svg" viewBox="0 0 1200 720" role="img" aria-labelledby="title desc">
<title id="title">EGO Shoes multi-store campaign operations</title><desc id="desc">Diagram showing one campaign schedule coordinating five storefronts, banners, layouts and Amplience content.</desc>
<defs><linearGradient id="bg" x1="0" x2="1" y1="0" y2="1"><stop stop-color="#10131a"/><stop offset="1" stop-color="#272d3b"/></linearGradient><linearGradient id="pink" x1="0" x2="1"><stop stop-color="#ff4f91"/><stop offset="1" stop-color="#ff7ab1"/></linearGradient></defs>
<rect width="1200" height="720" rx="34" fill="url(#bg)"/><circle cx="1080" cy="85" r="190" fill="#ff4f91" opacity=".09"/><circle cx="105" cy="670" r="220" fill="#7c3aed" opacity=".1"/>
<text x="70" y="105" fill="#fff" font-family="Arial,Helvetica,sans-serif" font-size="66" font-weight="800">EGO</text><text x="236" y="102" fill="#aab2c3" font-family="Arial,Helvetica,sans-serif" font-size="26" font-weight="700">MULTI-STORE CAMPAIGNS</text>
<rect x="70" y="160" width="1060" height="120" rx="22" fill="#fff" opacity=".07" stroke="#fff" stroke-opacity=".14"/><rect x="98" y="189" width="190" height="62" rx="14" fill="url(#pink)"/><text x="193" y="228" text-anchor="middle" fill="#fff" font-family="Arial" font-size="22" font-weight="700">SALE SCHEDULE</text>
<path d="M315 220H1080" stroke="#ff6ca7" stroke-width="4" stroke-dasharray="10 12"/><circle cx="420" cy="220" r="10" fill="#ff6ca7"/><circle cx="635" cy="220" r="10" fill="#ff6ca7"/><circle cx="850" cy="220" r="10" fill="#ff6ca7"/><circle cx="1065" cy="220" r="10" fill="#ff6ca7"/>
<g font-family="Arial" font-size="20" font-weight="700"><rect x="70" y="340" width="190" height="110" rx="18" fill="#fff"/><text x="165" y="388" text-anchor="middle" fill="#111827">STORE 01</text><text x="165" y="420" text-anchor="middle" fill="#667085" font-size="15">Campaign ready</text><rect x="280" y="340" width="190" height="110" rx="18" fill="#fff"/><text x="375" y="388" text-anchor="middle" fill="#111827">STORE 02</text><text x="375" y="420" text-anchor="middle" fill="#667085" font-size="15">Banner updated</text><rect x="490" y="340" width="190" height="110" rx="18" fill="#fff"/><text x="585" y="388" text-anchor="middle" fill="#111827">STORE 03</text><text x="585" y="420" text-anchor="middle" fill="#667085" font-size="15">Layout verified</text><rect x="700" y="340" width="190" height="110" rx="18" fill="#fff"/><text x="795" y="388" text-anchor="middle" fill="#111827">STORE 04</text><text x="795" y="420" text-anchor="middle" fill="#667085" font-size="15">Content synced</text><rect x="910" y="340" width="190" height="110" rx="18" fill="#fff"/><text x="1005" y="388" text-anchor="middle" fill="#111827">STORE 05</text><text x="1005" y="420" text-anchor="middle" fill="#667085" font-size="15">Launch checked</text></g>
<g font-family="Arial" font-size="18" font-weight="700"><rect x="70" y="520" width="310" height="86" rx="16" fill="#ff4f91" opacity=".16" stroke="#ff6ca7"/><text x="225" y="556" text-anchor="middle" fill="#fff">LAYOUT + BANNERS</text><text x="225" y="584" text-anchor="middle" fill="#c8cfdb" font-size="14">Promotional storefront changes</text><rect x="445" y="520" width="310" height="86" rx="16" fill="#7c3aed" opacity=".18" stroke="#a78bfa"/><text x="600" y="556" text-anchor="middle" fill="#fff">AMPLIENCE CONTENT</text><text x="600" y="584" text-anchor="middle" fill="#c8cfdb" font-size="14">Campaign asset coordination</text><rect x="820" y="520" width="310" height="86" rx="16" fill="#14b8a6" opacity=".16" stroke="#5eead4"/><text x="975" y="556" text-anchor="middle" fill="#fff">GO-LIVE SUPPORT</text><text x="975" y="584" text-anchor="middle" fill="#c8cfdb" font-size="14">Pre- and post-launch checks</text></g>
<text x="70" y="665" fill="#949eb1" font-family="Arial" font-size="15">Illustrative workflow based on Shakeel Mureed’s Magento campaign responsibilities; not a screenshot of the current third-party storefront.</text></svg>
