<svg xmlns="http://www.w3.org/2000/svg" viewBox="0 0 1200 720" role="img" aria-labelledby="title desc">
  <title id="title">National Museum of Qatar Hyva frontend</title><desc id="desc">An architectural website interface inspired by museum forms and a responsive design grid.</desc>
  <defs><linearGradient id="bg" x1="0" y1="0" x2="1" y2="1"><stop stop-color="#3f2415"/><stop offset=".55" stop-color="#8b5e34"/><stop offset="1" stop-color="#d6b58a"/></linearGradient><filter id="s"><feDropShadow dx="0" dy="18" stdDeviation="18" flood-opacity=".3"/></filter></defs>
  <rect width="1200" height="720" rx="44" fill="url(#bg)"/><circle cx="1030" cy="100" r="250" fill="#fff7ed" opacity=".12"/>
  <text x="72" y="86" fill="#fed7aa" font-family="Arial" font-size="24" font-weight="700" letter-spacing="3">HYVÄ · TAILWIND · ALPINE.JS</text><text x="72" y="140" fill="#fff" font-family="Arial" font-size="42" font-weight="700">Design-to-theme delivery</text>
  <g filter="url(#s)"><rect x="72" y="188" width="1056" height="458" rx="28" fill="#fffaf5"/><rect x="72" y="188" width="1056" height="70" rx="28" fill="#fff"/><rect x="72" y="232" width="1056" height="26" fill="#fff"/></g>
  <circle cx="112" cy="222" r="9" fill="#fb7185"/><circle cx="142" cy="222" r="9" fill="#fbbf24"/><circle cx="172" cy="222" r="9" fill="#34d399"/>
  <text x="220" y="230" fill="#78716c" font-family="Arial" font-size="19">museum-experience / responsive-layout</text>
  <g transform="translate(112 300)">
    <path d="M0 240C80 30 240 0 350 158c105-190 306-173 396 20 82-130 170-124 238 62v55H0Z" fill="#e7d6c0"/>
    <path d="M88 240C144 112 237 93 300 203c60-122 177-111 233 15 47-86 110-82 151 22" fill="none" stroke="#9a6c44" stroke-width="18" stroke-linecap="round"/>
    <rect x="70" y="266" width="844" height="18" rx="9" fill="#6b4423" opacity=".45"/>
  </g>
  <g font-family="Arial"><rect x="132" y="338" width="258" height="136" rx="18" fill="#fff" opacity=".95"/><text x="160" y="378" fill="#9a3412" font-size="18" font-weight="700">60+ RESPONSIVE PAGES</text><text x="160" y="418" fill="#292524" font-size="22" font-weight="700">Figma to HTML</text><text x="160" y="448" fill="#78716c" font-size="16">then Magento Hyvä</text>
  <rect x="812" y="440" width="250" height="112" rx="18" fill="#431407"/><text x="840" y="480" fill="#fed7aa" font-size="18" font-weight="700">CUSTOM COMPONENTS</text><text x="840" y="518" fill="#fff" font-size="17">Alpine interactions</text></g>
</svg>
